<svg xmlns="http://www.w3.org/2000/svg" xml:space="preserve" width="2048" height="2048" style="shape-rendering:geometricPrecision;text-rendering:geometricPrecision;image-rendering:optimizeQuality;fill-rule:evenodd;clip-rule:evenodd"><defs><style>.fil0{fill:none}</style></defs><g id="Layer_x0020_1"><path class="fil0" d="M0 0h2048v2048H0z"/><path class="fil0" d="M255.999 255.999h1536v1536h-1536z"/><g id="_350948664"><path id="_350949072" class="fil0" d="M234.223 255.999h1536v1536h-1536z"/><path id="_350948928" style="fill:#9a9b9b" d="M429.867 1029.53V287.999H1561.72v126.52H557.868v617.291l116.156-115.093 91.666 88.063L496.009 1272l-45.292-44.31-226.796-221.88 91.17-88.565z"/><path id="_350948760" style="fill:#9d9d9d" d="M1617.53 745.765V1728H426.74v-368.23h128.001v243.27h934.779V743.543l-116.15 112.223-92.27-86.428 270.29-261.129 45 42.922 227.69 217.192-91.78 86.927z"/><path id="_350948736" d="M1024.39 1226.77v-179.765c-56.816-16.117-98.5-40.29-125.055-72.815-26.402-32.525-39.755-71.936-39.755-118.233 0-46.883 14.984-86.293 44.95-118.233 30.11-31.938 70.018-50.251 119.86-55.233v-42.488h62.9v42.488c46.136 5.568 82.775 20.95 110.072 46.59 27.147 25.64 44.505 59.923 52.068 102.849l-109.923 14.212c-6.676-33.846-24.03-56.7-52.217-68.714V945.18c69.576 18.607 117.045 42.782 142.115 72.377 25.218 29.595 37.826 67.541 37.826 113.982 0 51.718-15.873 95.379-47.47 130.832-31.745 35.603-75.95 57.286-132.47 65.345v80.287h-62.9v-78.237c-50.14-6.006-90.934-24.467-122.236-55.381-31.3-30.766-51.179-74.426-59.932-130.832l113.485-12.014c4.598 22.855 13.352 42.635 26.109 59.19 12.608 16.555 26.85 28.57 42.574 36.04zm0-450.659c-17.206 5.712-30.707 15.53-40.943 29.154-10.086 13.772-15.131 29.01-15.131 45.566 0 15.089 4.6 29.301 13.798 42.194 9.346 13.04 23.439 23.587 42.276 31.646v-148.56zm62.9 456.668c21.806-3.956 39.46-13.918 53.107-29.741 13.649-15.971 20.47-34.578 20.47-56.112 0-19.196-5.786-35.605-17.206-49.523-11.423-13.918-30.263-24.613-56.371-31.938v167.314z" style="fill:#949494;fill-rule:nonzero"/></g></g></svg>